<svg width="1600" height="1600" viewBox="0 0 1200 1200" xmlns="http://www.w3.org/2000/svg" xmlns:xlink="http://www.w3.org/1999/xlink" overflow="hidden"><path d="M1073.2 265.54C1013.74 298.708 946.41 334.673 921.95 341.645L921.712 342.102 908.982 345.102C908.693 345.161 878.802 352.11 850.123 352.782 848.525 352.817 846.884 352.829 845.189 352.829 813.377 352.829 771.353 347.153 763.986 343.719 752.107 338.211 744.509 334.696 735.115 330.289 688.592 308.605 649.869 290.519 649.869 290.519 648.045 289.656 646.377 289.152 645.178 288.765L644.615 288.586C644.436 288.515 644.279 288.453 644.123 288.406L644.076 288.382C637.631 285.863 631.045 284.316 624.576 283.773L511.306 273.668C494.904 272.191 478.607 276.465 465.107 285.766 464.736 286.02 464.146 286.415 463.486 286.918 461.123 288.684 458.049 291.094 455.088 294.118 443.76 303.981 428.447 317.649 413.221 331.329 376.295 337.594 341.666 350.915 307.901 364.017 276.198 347.037 188.001 299.361 122.361 259.837L120.825 258.911 119.181 258.169C110.075 254.083 100.857 252.02 91.81 252.008L91.7865 252.008C77.2905 252.008 56.2555 257.29 38.3605 282.465 13.5205 317.41 4.59052 377.746 1.47352 422.215-1.54988 465.27-0.397583 520.77 8.97352 547.695 22.8565 587.57 70.7975 614.453 121.544 642.902 147.774 657.613 174.884 672.804 189.513 686.535 202.99 701.297 218.072 714.746 234.935 727.777 234.489 748.261 246.982 767.507 267.193 774.48 278.834 778.477 290.955 777.66 301.502 773.148 301.634 773.234 301.755 773.316 301.884 773.402L306.791 776.461 309.166 776.883 307.474 781.777C298.728 807.168 311.974 834.781 337.079 843.422 354.153 849.301 372.298 844.864 384.923 833.45 383.052 855.087 395.735 875.966 416.974 883.274 434.064 889.153 452.204 884.715 464.818 873.289 462.947 894.926 475.63 915.816 496.869 923.125 521.963 931.766 549.392 918.168 558.131 892.777L559.846 887.82 639.514 937.597C650.448 944.425 663.022 948.038 675.862 948.038 699.717 948.038 721.51 935.968 734.135 915.757 741.623 903.78 745.162 890.101 744.514 876.288L745.44 876.878C756.385 883.706 768.948 887.319 781.799 887.319 805.643 887.319 827.447 875.249 840.072 855.038 848.029 842.28 851.291 827.917 850.318 813.964 858.072 816.917 866.326 818.452 874.689 818.452 898.544 818.452 920.337 806.382 932.962 786.159 941.313 772.815 944.482 757.671 943.056 743.081 948.888 744.691 954.958 745.492 961.079 745.492 984.934 745.492 1006.72 733.422 1019.34 713.211 1037.81 683.656 1030.97 645.352 1004.7 623.785L1004.57 623.363C1034.23 615.933 1130.1 588.828 1177.69 538.726 1234.44 478.98 1176.72 196.336 1073.2 265.536ZM708.81 899.91C701.455 911.683 688.794 918.164 675.857 918.164 668.838 918.164 661.72 916.258 655.326 912.262L569.814 858.836 589.048 803.012C591.603 795.598 592.239 787.977 591.279 780.715L696.469 846.449C714.653 857.781 720.183 881.73 708.808 899.91ZM994.05 697.35C986.695 709.135 974.034 715.604 961.097 715.604 954.066 715.604 946.96 713.698 940.566 709.702L769.316 602.702C769.304 602.725 769.293 602.749 769.281 602.772L718.82 571.249C716.359 569.714 713.636 568.979 710.937 568.979 705.957 568.979 701.097 571.476 698.253 575.999 693.886 582.995 696.011 592.21 703.007 596.577L754.39 628.679C754.378 628.702 754.355 628.726 754.355 628.749L895.315 716.827C913.495 728.19 919.026 752.132 907.651 770.311 900.295 782.096 887.635 788.565 874.698 788.565 867.678 788.565 860.561 786.659 854.167 782.663L710.847 693.097C710.823 693.12 710.812 693.144 710.8 693.156L661.792 662.531C659.331 660.995 656.585 660.273 653.897 660.273 648.917 660.273 644.058 662.757 641.213 667.281 636.846 674.277 638.956 683.492 645.967 687.859L691.053 716.035C691.042 716.058 691.03 716.081 691.006 716.093L802.416 785.718C820.596 797.07 826.127 821.011 814.764 839.191 807.397 850.976 794.748 857.445 781.811 857.445 774.792 857.445 767.663 855.539 761.28 851.543L623.05 765.18C623.027 765.192 622.992 765.203 622.953 765.215L604.738 753.84C602.277 752.305 599.531 751.571 596.843 751.571 591.874 751.571 587.003 754.055 584.159 758.59 583.882 759.035 583.679 759.5 583.452 759.969 577.847 751.594 569.651 744.91 559.429 741.395 543.335 735.852 526.308 739.489 513.839 749.469L514.128 748.641C522.874 723.239 509.617 695.637 484.523 686.996 460.367 678.68 434.125 690.969 424.367 714.558 420.754 698.886 409.558 685.421 393.359 679.843 373.066 672.847 351.214 680.433 339 697.038 336.551 679.612 324.816 664.229 307.223 658.171 282.129 649.53 254.7 663.116 245.95 688.519L243.275 696.296C231.24 686.398 220.56 676.362 210.877 665.659 167.768 624.202 54.1065 586.475 37.1765 537.869 21.4105 492.607 27.2312 281.839 91.7895 281.859 96.5161 281.859 101.571 283 106.946 285.398 188.52 334.527 305.915 396.788 305.915 396.788 325.885 389.085 345.49 381.261 365.197 374.612 362.411 377.12 360.025 379.269 358.212 380.878 348.454 389.612 344.052 401.194 345.841 413.507 347.439 424.476 354.072 435.011 361.872 438.706 365.087 440.136 369.407 441.995 374.255 443.554 376.212 444.214 378.193 444.851 380.411 445.448 389.458 447.823 398.806 449.038 408.181 449.038 432.626 449.038 456.673 441.011 479.521 425.265 483.06 422.89 502.166 409.617 507.998 405.37 512.451 402.116 522.697 396.683 541.096 396.683 543.581 396.683 546.135 396.792 548.764 396.983 561.076 397.909 577.541 401.339 590.33 404.362 601.572 411.456 613.213 418.788 625.057 426.214 631.104 426.671 637.155 428.531 642.662 431.976L981.692 643.856C999.872 655.231 1005.4 679.172 994.04 697.34Z" fill="#472580"/></svg>